<svg width="863" height="627" viewBox="0 0 863 627" fill="none" xmlns="http://www.w3.org/2000/svg">
<path d="M863 0H-66V627H863V0Z" fill="white"/>
<path d="M203.271 197.333C210.455 219.34 216.339 241.975 220.86 265.174C225.784 290.332 229.112 316.118 230.862 342.467C231.419 350.806 231.837 359.271 232.968 367.406C234.361 377.376 236.808 386.843 241.902 394.963C242.955 396.656 246.129 403.036 249.581 409.791C250.216 411.03 250.866 412.284 251.501 413.522C255.573 421.422 259.568 428.758 260.497 428.633C272.822 427.018 274.51 400.151 274.494 395.809C274.448 371.889 272.93 348.408 269.957 325.46C269.354 320.726 268.672 316.024 267.945 311.337C267.929 311.258 267.914 311.18 267.898 311.086C266.334 301.164 264.492 291.257 263.284 281.162C263.036 279.109 262.82 277.056 262.634 274.986C261.581 263.246 261.581 251.208 264.043 238.526C265.56 230.783 267.976 222.742 267.294 215.578C266.319 205.452 259.305 198.148 254.923 189.573C246.965 173.945 247.847 154.148 243.791 136.592C241.375 126.152 237.195 116.512 233.03 106.903L218.243 72.779C217.639 71.3839 214.636 72.5439 214.496 74.2211C212.313 99.8811 209.681 125.713 202.791 152.251C200.964 159.321 198.812 166.484 198.502 173.24C198.084 181.987 200.762 189.683 203.271 197.333Z" fill="#5EFFB9"/>
<path d="M179.364 246.552C180.866 252.273 181.052 258.105 181.346 263.904C182.399 284.313 184.954 304.659 188.995 324.88C189.429 327.059 189.878 329.222 190.342 331.401C191.968 338.956 193.795 346.48 195.839 353.989C195.901 354.208 195.963 354.443 196.024 354.663C198.161 362.296 201.598 370.526 214.063 374.883C216.881 375.855 219.389 374.711 221.541 372.563C222.485 371.623 223.368 370.494 224.173 369.256C227.61 364.036 229.84 357.014 230.676 355.086C234.501 346.339 236.916 337.451 235.6 328.658C234.206 319.519 228.865 310.741 227.115 301.634C225.582 293.624 226.852 285.536 228.447 277.416C230.15 268.795 232.24 260.158 231.745 251.584C230.97 238.119 223.879 225.14 216.834 212.302C212.437 204.292 208.024 196.282 203.441 188.288C196.35 175.921 188.84 163.647 180.262 151.546C177.63 147.847 173.233 143.567 165.12 143.583C165.135 157.941 165.135 172.284 165.151 186.627C165.151 188.429 165.151 190.232 165.151 192.034C165.151 200.969 165.166 209.935 167.891 218.682C170.849 228.087 176.872 237.116 179.364 246.552Z" fill="#5EFFB9"/>
<path d="M220.364 94.4261C220.364 94.7867 220.953 131.106 225.799 171.296C232.317 225.453 243.094 260.518 257.787 275.519C259.289 277.04 260.59 278.937 261.674 281.178C265.003 287.965 266.535 297.997 266.288 311.102C265.854 334.144 259.893 366.701 248.497 407.848C248.327 408.49 248.141 409.133 247.955 409.776C248.59 411.014 249.241 412.268 249.875 413.506C250.34 411.829 250.82 410.168 251.284 408.475C260.605 374.821 266.288 347.091 268.347 325.444C270.716 300.552 268.285 283.67 261.023 274.986C260.667 274.563 260.296 274.14 259.924 273.764C225.721 238.887 223.244 95.8369 223.229 94.3948C223.213 93.6737 222.563 93.0938 221.773 93.1094C220.984 93.1094 220.349 93.7051 220.364 94.4261Z" fill="#D8FFEE"/>
<path d="M175.168 168.302C183.994 182.253 192.866 215.218 200.716 252.587C206.925 282.134 212.499 314.425 216.912 342.232C218.661 353.189 220.209 363.441 221.557 372.563C222.501 371.623 223.384 370.494 224.189 369.256C222.842 360.164 221.293 350.054 219.59 339.332C217.856 328.47 215.952 316.98 213.923 305.302C210.703 286.853 207.544 270.112 204.432 255.126C195.003 209.528 186.115 179.98 177.924 167.017C177.568 166.453 176.67 166.28 175.912 166.641C175.137 167.001 174.812 167.738 175.168 168.302Z" fill="#D8FFEE"/>
<path d="M463.747 144.476C445.523 151.891 428.522 162.205 413.039 174.666C394.041 189.965 351.276 215.61 287.516 204.574C198.812 189.229 101.793 286.131 150.767 432.928C199.741 579.724 623.86 600.838 689.463 428.131C750.731 266.882 644.004 71.1017 463.747 144.476Z" fill="#B3FFDE"/>
<path d="M464.026 544.596H329.94C313.264 544.596 299.747 530.912 299.747 514.03V189.323C299.747 172.441 313.264 158.756 329.94 158.756H464.026C480.701 158.756 494.218 172.441 494.218 189.323V514.03C494.218 530.912 480.701 544.596 464.026 544.596Z" fill="white"/>
<path d="M479.896 552.403H314.07C301.931 552.403 292.037 542.402 292.037 530.097V173.256C292.037 160.967 301.915 150.95 314.07 150.95H479.911C492.05 150.95 501.944 160.951 501.944 173.256V530.113C501.929 542.402 492.05 552.403 479.896 552.403ZM314.07 166.562C310.431 166.562 307.458 169.556 307.458 173.256V530.113C307.458 533.796 310.415 536.806 314.07 536.806H479.911C483.55 536.806 486.523 533.812 486.523 530.113V173.256C486.523 169.572 483.565 166.562 479.911 166.562H314.07Z" fill="#45FBAC"/>
<path d="M414.572 173.945H375.213C371.249 173.945 368.029 170.685 368.029 166.672V163.866C368.029 159.854 371.249 156.593 375.213 156.593H414.572C418.536 156.593 421.756 159.854 421.756 163.866V166.672C421.756 170.685 418.536 173.945 414.572 173.945Z" fill="#45FBAC"/>
<path d="M166.761 273.168C171.963 288.608 172.335 304.095 176.423 319.566C179.953 332.921 186.208 346.135 192.076 359.334C205.516 389.524 219.931 423.774 214.264 453.587C212.669 462.021 206.987 467.93 194.832 466.018C194.074 465.892 193.299 465.751 192.494 465.563C191.565 465.344 190.59 465.109 189.583 464.795C174.054 460.218 166.327 446.346 161.172 436.423C155.334 425.153 149.621 413.883 144.186 402.565C140.223 394.305 136.46 385.918 135.81 377.595C135.299 371.106 136.708 364.836 136.383 358.346C135.221 335.555 113.049 312.998 110.247 290.066C108.993 279.814 111.702 269.97 110.711 259.719C109.751 249.781 105.339 239.765 102.025 229.795C95.4448 210.045 93.0758 190.059 95.0422 170.842C95.2125 169.227 97.8602 168.663 99.7182 169.839C103.945 172.55 106.825 176.532 109.333 180.231C119.692 195.53 130.066 210.829 140.424 226.128C150.829 241.505 161.326 257.054 166.761 273.168Z" fill="#5EFFB9"/>
<path d="M104.177 185.545C104.503 186.313 136.615 264.092 166.08 348.251C202.621 452.647 219.234 520.582 215.58 550.537C214.543 550.428 213.474 550.255 212.375 550.067C216.184 521.288 199.292 452.145 163.154 348.91C133.72 264.845 101.654 187.175 101.329 186.391C100.957 185.498 101.298 184.573 102.087 184.338C102.877 184.103 103.821 184.651 104.177 185.545Z" fill="#D8FFEE"/>
<path d="M532.446 441.408C536.41 423.194 545.87 407.91 548.565 389.069C551.088 371.309 547.512 350.979 549.323 332.89C552.389 302.167 570.83 278.874 570.442 246.724C570.288 233.479 566.897 219.136 566.881 205.938C566.866 189.997 571.805 176.156 579.33 164.243C580.367 162.597 584.099 164.368 584.563 166.719C587.118 179.855 588.543 192.708 589.951 205.53C592.197 225.892 594.426 246.254 596.671 266.616C598.529 283.482 600.387 300.521 597.817 315.647C596.067 325.961 592.274 335.288 591.577 346.073C590.416 364.005 597.879 385.244 594.829 402.314C592.351 416.155 583.139 426.234 580.212 439.856C575.877 460.061 585.585 487.085 576.032 504.186C569.684 515.535 553.751 511.522 543.068 496.662C529.644 478.025 529.195 456.346 532.446 441.408Z" fill="#45FBAC"/>
<path d="M579.609 443.461C586.592 435.357 596.052 428.696 599.381 418.491C602.369 409.353 600.356 397.675 599.938 386.828C598.56 351.559 613.951 324.676 629.728 298.421C647.457 268.92 665.82 239.749 689.54 213.901C690.686 212.647 696.198 215.751 695.997 217.538L692.049 253.386C689.2 279.297 686.351 305.239 679.337 329.003C666.749 371.67 640.814 407.095 632.283 451.895C629.45 466.786 628.397 482.633 623.628 496.521C620.02 507.008 613.842 531.022 591.933 528.922C565.751 526.398 565.674 500.048 565.132 490.628C564.079 471.88 568.925 455.876 579.609 443.461Z" fill="#5EFFB9"/>
<path d="M554.386 499.437C554.944 499.437 555.455 498.935 555.594 498.183C566.293 440.076 573.291 382.862 580.089 324.504C580.104 324.426 580.104 324.331 580.104 324.253V318.422L580.228 316.902C580.677 311.682 581.095 306.76 581.095 301.336C583.34 275.206 585.214 244.53 582.086 215.03C581.993 214.136 581.374 213.509 580.677 213.635C579.996 213.76 579.516 214.591 579.609 215.484C582.705 244.655 580.832 275.112 578.602 301.054C578.602 301.117 578.587 301.179 578.587 301.242C578.587 306.525 578.169 311.384 577.735 316.541L577.596 318.156C577.596 318.218 577.58 318.281 577.58 318.344V324.128C570.783 382.376 563.8 439.464 553.132 497.415C552.977 498.293 553.38 499.186 554.046 499.406C554.185 499.421 554.278 499.437 554.386 499.437Z" fill="#D8FFEE"/>
<path d="M584.13 521.366C584.749 521.366 585.291 520.833 585.368 520.128C586.003 513.889 587.582 507.901 589.115 502.102C590.447 497.07 591.825 491.881 592.537 486.63C604.212 449.778 618.611 406.139 636.804 361.732C636.819 361.716 636.819 361.685 636.835 361.669C637.346 360.227 637.733 358.942 638.105 357.688C638.476 356.434 638.832 355.227 639.312 353.894C642.471 346.276 645.598 338.674 648.726 331.103C661.128 301.023 673.949 269.923 687.14 239.608C687.435 238.918 687.187 238.072 686.567 237.743C685.948 237.398 685.205 237.696 684.895 238.385C671.688 268.716 658.868 299.831 646.45 329.927C643.322 337.514 640.179 345.116 637.036 352.75C637.021 352.766 637.021 352.797 637.005 352.813C636.494 354.255 636.107 355.54 635.736 356.794C635.364 358.064 635.008 359.255 634.528 360.588C616.273 405.136 601.843 448.901 590.153 485.815C590.122 485.894 590.106 485.988 590.091 486.082C589.409 491.176 588.109 496.098 586.731 501.302C585.167 507.212 583.557 513.325 582.891 519.799C582.814 520.567 583.309 521.256 583.99 521.35C584.021 521.366 584.083 521.366 584.13 521.366Z" fill="#D8FFEE"/>
<path d="M473.842 431.752C473.842 431.752 458.529 435.028 455.974 436.423C453.419 437.818 451.948 442.333 451.948 442.333L456.005 445.687L463.855 440.781C463.855 440.781 471.396 443.273 475.266 440.123C479.137 437.003 473.842 431.752 473.842 431.752Z" fill="#EC9F90"/>
<path d="M516.777 377.815C505.505 373.598 504.901 382.627 504.901 382.627C504.901 382.627 502.842 400.873 504.576 415.779L473.857 431.768L475.282 440.154C475.282 440.154 513.619 435.718 517.443 431.376C520.849 427.52 523.946 399.07 524.581 392.847C524.565 392.847 528.049 382.031 516.777 377.815Z" fill="#1ABF78"/>
<path d="M521.825 540.772H403.316V553.312H521.825V540.772Z" fill="#FCD17D"/>
<path d="M535.156 528.436H416.647V540.976H535.156V528.436Z" fill="#FCD17D"/>
<path d="M416.647 528.436L535.156 540.976H416.647V528.436Z" fill="#FFA600"/>
<path d="M535.156 528.436V540.976L416.647 528.436H535.156Z" fill="#FFD165"/>
<path d="M430.148 528.436H427.098V540.944H430.148V528.436Z" fill="#FFD165"/>
<path d="M446.529 528.436H443.479V540.944H446.529V528.436Z" fill="#FFD165"/>
<path d="M464.846 528.436H461.796V540.944H464.846V528.436Z" fill="#FFD165"/>
<path d="M482.203 528.436H479.153V540.944H482.203V528.436Z" fill="#FFD165"/>
<path d="M502.44 528.436H499.39V540.944H502.44V528.436Z" fill="#FFD165"/>
<path d="M522.197 528.436H519.146V540.944H522.197V528.436Z" fill="#FFD165"/>
<path d="M522.135 540.552H403.625V553.092H522.135V540.552Z" fill="#FCD17D"/>
<path d="M403.625 540.552L522.135 553.092H403.625V540.552Z" fill="#FFA600"/>
<path d="M522.135 540.552V553.092L403.625 540.552H522.135Z" fill="#FFD165"/>
<path d="M417.127 540.552H414.077V553.061H417.127V540.552Z" fill="#FFD165"/>
<path d="M433.508 540.552H430.458V553.061H433.508V540.552Z" fill="#FFD165"/>
<path d="M451.825 540.552H448.775V553.061H451.825V540.552Z" fill="#FFD165"/>
<path d="M469.182 540.552H466.132V553.061H469.182V540.552Z" fill="#FFD165"/>
<path d="M489.434 540.552H486.384V553.061H489.434V540.552Z" fill="#FFD165"/>
<path d="M509.191 540.552H506.141V553.061H509.191V540.552Z" fill="#FFD165"/>
<path d="M458.933 461.048C488.587 447.719 501.952 412.578 488.787 382.558C475.622 352.538 440.91 339.006 411.257 352.335C381.604 365.663 368.238 400.804 381.403 430.824C394.569 460.845 429.28 474.376 458.933 461.048Z" fill="#FFA600"/>
<path d="M427.129 467.382C459.572 467.382 485.872 440.756 485.872 407.911C485.872 375.066 459.572 348.44 427.129 348.44C394.685 348.44 368.385 375.066 368.385 407.911C368.385 440.756 394.685 467.382 427.129 467.382Z" fill="#FFD165"/>
<path d="M445.446 455.045C440.522 456.911 435.289 457.992 429.885 458.227C416.6 458.776 403.919 454.042 394.149 444.919C384.379 435.796 378.712 423.366 378.171 409.917C377.629 396.468 382.305 383.63 391.316 373.739C400.327 363.848 412.605 358.111 425.89 357.562C439.175 357.014 451.856 361.748 461.626 370.87C471.396 379.993 477.063 392.424 477.604 405.873C478.146 419.322 473.47 432.16 464.459 442.051C459.102 447.913 452.614 452.318 445.446 455.045ZM410.531 361.309C403.455 364.005 397.045 368.362 391.765 374.147C382.862 383.912 378.248 396.609 378.774 409.886C379.301 423.162 384.906 435.436 394.552 444.449C404.198 453.462 416.739 458.133 429.854 457.585C442.968 457.052 455.092 451.377 463.995 441.612C472.898 431.846 477.512 419.149 476.985 405.873L477.295 405.857L476.985 405.873C476.459 392.596 470.854 380.322 461.208 371.309C451.562 362.296 439.02 357.625 425.906 358.158C420.564 358.393 415.392 359.459 410.531 361.309Z" fill="#FFA600"/>
<path d="M444.795 428.68C432.873 433.21 422.669 429.981 416.151 420.764L443.231 410.45L440.816 403.929L412.76 414.604C412.481 413.961 412.203 413.334 411.955 412.66C411.878 412.441 411.816 412.237 411.738 412.018L440.816 400.951L438.4 394.43L410.02 405.23C408.053 392.471 414.262 382.533 426.385 377.924C431.479 375.981 436.171 375.463 439.717 375.793L439.19 368.519C436.682 368.206 431.247 368.394 423.598 371.294C407.109 377.564 398.841 392.016 401.612 408.412L395.125 410.889L397.54 417.41L403.377 415.184C403.486 415.497 403.563 415.795 403.671 416.109C403.888 416.689 404.136 417.222 404.368 417.786L397.54 420.388L399.955 426.909L407.527 424.025C416.197 437.96 430.845 441.643 445.647 436.016C453.11 433.179 458.389 429.479 460.758 426.893L456.764 421.156C454.147 423.962 449.61 426.846 444.795 428.68Z" fill="#FFA600"/>
<path d="M602.106 553.265H552.792C537.928 553.265 525.866 535.787 525.866 514.234V475.203H629.496L629.032 514.234C629.032 535.787 616.97 553.265 602.106 553.265Z" fill="#1ABF78"/>
<path d="M378.743 502.729H260.234V515.269H378.743V502.729Z" fill="#FCD17D"/>
<path d="M366.155 515.049H247.646V527.589H366.155V515.049Z" fill="#FCD17D"/>
<path d="M360.984 527.385H242.474V539.925H360.984V527.385Z" fill="#FCD17D"/>
<path d="M369.515 539.706H251.006V552.246H369.515V539.706Z" fill="#FCD17D"/>
<path d="M378.681 502.29H260.172V514.83H378.681V502.29Z" fill="#FCD17D"/>
<path d="M260.172 502.29L378.681 514.83H260.172V502.29Z" fill="#FFA600"/>
<path d="M378.681 502.29V514.83L260.172 502.29H378.681Z" fill="#FFD165"/>
<path d="M273.673 502.29H270.623V514.798H273.673V502.29Z" fill="#FFD165"/>
<path d="M290.055 502.29H287.005V514.798H290.055V502.29Z" fill="#FFD165"/>
<path d="M308.372 502.29H305.321V514.798H308.372V502.29Z" fill="#FFD165"/>
<path d="M325.728 502.29H322.678V514.798H325.728V502.29Z" fill="#FFD165"/>
<path d="M345.965 502.29H342.915V514.798H345.965V502.29Z" fill="#FFD165"/>
<path d="M365.737 502.29H362.687V514.798H365.737V502.29Z" fill="#FFD165"/>
<path d="M366.155 515.049H247.646V527.589H366.155V515.049Z" fill="#FCD17D"/>
<path d="M247.646 515.049L366.155 527.589H247.646V515.049Z" fill="#FFA600"/>
<path d="M366.155 515.049V527.589L247.646 515.049H366.155Z" fill="#FFD165"/>
<path d="M261.132 515.049H258.081V527.558H261.132V515.049Z" fill="#FFD165"/>
<path d="M277.529 515.049H274.478V527.558H277.529V515.049Z" fill="#FFD165"/>
<path d="M295.845 515.049H292.795V527.558H295.845V515.049Z" fill="#FFD165"/>
<path d="M313.187 515.049H310.136V527.558H313.187V515.049Z" fill="#FFD165"/>
<path d="M333.439 515.049H330.389V527.558H333.439V515.049Z" fill="#FFD165"/>
<path d="M353.196 515.049H350.146V527.558H353.196V515.049Z" fill="#FFD165"/>
<path d="M360.984 527.808H242.474V540.348H360.984V527.808Z" fill="#FCD17D"/>
<path d="M242.474 527.808L360.984 540.348H242.474V527.808Z" fill="#FFA600"/>
<path d="M360.984 527.808V540.348L242.474 527.808H360.984Z" fill="#FFD165"/>
<path d="M255.976 527.808H252.926V540.317H255.976V527.808Z" fill="#FFD165"/>
<path d="M272.357 527.808H269.307V540.317H272.357V527.808Z" fill="#FFD165"/>
<path d="M290.674 527.808H287.624V540.317H290.674V527.808Z" fill="#FFD165"/>
<path d="M308.031 527.808H304.981V540.317H308.031V527.808Z" fill="#FFD165"/>
<path d="M328.283 527.808H325.233V540.317H328.283V527.808Z" fill="#FFD165"/>
<path d="M348.04 527.808H344.99V540.317H348.04V527.808Z" fill="#FFD165"/>
<path d="M369.515 540.427H251.006V552.967H369.515V540.427Z" fill="#FCD17D"/>
<path d="M251.006 540.427L369.515 552.967H251.006V540.427Z" fill="#FFA600"/>
<path d="M369.515 540.427V552.967L251.006 540.427H369.515Z" fill="#FFD165"/>
<path d="M264.507 540.427H261.457V552.935H264.507V540.427Z" fill="#FFD165"/>
<path d="M280.904 540.427H277.854V552.935H280.904V540.427Z" fill="#FFD165"/>
<path d="M299.221 540.427H296.171V552.935H299.221V540.427Z" fill="#FFD165"/>
<path d="M316.562 540.427H313.512V552.935H316.562V540.427Z" fill="#FFD165"/>
<path d="M336.815 540.427H333.764V552.935H336.815V540.427Z" fill="#FFD165"/>
<path d="M356.571 540.427H353.521V552.935H356.571V540.427Z" fill="#FFD165"/>
<path d="M519.193 554.817H495.581C494.605 554.817 494.125 553.719 494.822 553.092L506.481 542.449L505.459 537.496L514.671 536.352L516.111 542.245L519.193 554.817Z" fill="#D90000"/>
<path d="M516.096 542.245L506.496 542.433L504.871 535.003L514.811 534.016L516.096 542.245Z" fill="#EC9F90"/>
<path d="M587.103 554.817H563.475C562.5 554.817 562.02 553.625 562.716 552.936L574.375 541.415L573.353 536.054L582.566 534.815L584.006 541.195L587.103 554.817Z" fill="#D90000"/>
<path d="M584.006 541.195L574.375 541.415L573.338 536.054L582.566 534.815L584.006 541.195Z" fill="#EC9F90"/>
<path d="M554.371 415.999L554.975 416.516C554.975 416.516 566.03 436.361 565.457 453.509C564.899 470.642 567.717 483.777 567.717 483.777L587.087 531.947C587.087 531.947 579.934 539.753 572.424 537.464L549.106 492.524L536.875 456.158C536.875 456.158 521.267 477.868 511.668 485.862C511.668 485.862 515.693 496.333 519.193 534.423C519.193 534.423 505.459 537.668 502.084 536.132L491.555 483.966L522.398 432.552L518.357 422.143L554.371 415.999Z" fill="#2FDD92"/>
<path d="M563.444 429.667C563.444 429.667 538.81 439.527 520.617 434.417L502.78 391.107C502.78 391.107 498.971 377.971 508.71 371.121C518.449 364.271 532.973 369.413 541.999 388.395C551.042 407.393 563.444 429.667 563.444 429.667Z" fill="#1ABF78"/>
<path d="M470.405 416.061C470.405 416.061 454.766 415.356 451.948 416.061C449.131 416.767 446.591 420.764 446.591 420.764L449.688 425.043L458.498 422.284C458.498 422.284 465.187 426.611 469.708 424.541C474.229 422.472 470.405 416.061 470.405 416.061Z" fill="#EC9F90"/>
<path d="M497.361 347.938C497.361 347.938 492.221 348.502 490.982 342.796C489.743 337.091 493.119 333.658 497.361 335.367C497.361 335.367 495.457 328.799 502.053 329.081C508.648 329.363 511.188 334.504 511.188 334.504C511.188 334.504 518.806 330.225 522.196 338.502C525.587 346.778 518.248 359.914 518.248 359.914L512.55 364.067L497.361 347.938Z" fill="#D90000"/>
<path d="M496.618 345.383L494.636 365.086L501.789 366.121L505.18 374.695C505.18 374.695 513.65 375.259 515.616 369.554L510.537 360.556C510.537 360.556 517.304 353.267 510.816 352.703L507.998 354.553C507.998 354.553 504.747 353.549 506.868 348.69C509.004 343.847 496.618 345.383 496.618 345.383Z" fill="#EC9F90"/>
<path d="M525.293 374.695C515.415 367.767 512.597 376.341 512.597 376.341C512.597 376.341 506.094 393.49 504.096 408.349L470.405 416.046L469.708 424.526C469.708 424.526 507.921 429.95 512.705 426.705C516.948 423.821 526.981 397.079 529.133 391.217C529.133 391.232 535.172 381.639 525.293 374.695Z" fill="#2FDD92"/>
<path d="M278.164 230.611H272.048V224.419H268.734V230.611H262.618V233.965H268.734V240.157H272.048V233.965H278.164V230.611Z" fill="#1ABF78"/>
<path d="M638.554 209.622L636.045 207.067L629.496 213.713L622.947 207.067L620.438 209.622L626.988 216.252L620.438 222.883L622.947 225.422L629.496 218.792L636.045 225.422L638.554 222.883L632.004 216.252L638.554 209.622Z" fill="#45FBAC"/>
<path d="M549.153 163.161H541.411V155.339H537.231V163.161H529.505V167.393H537.231V175.215H541.411V167.393H549.153V163.161Z" fill="white"/>
<path d="M185.062 421.846V430.592L181.733 437.16L181.083 423.492C181.083 423.492 177.661 420.513 179.117 416.861C180.572 413.209 185.062 421.846 185.062 421.846Z" fill="#EC9F90"/>
<path d="M174.007 351.841C163.014 352.499 171.654 363.942 171.654 363.942C171.654 363.942 181.006 377.862 191.023 387.173L179.117 416.877L185.062 421.846C185.062 421.846 209.077 395.543 209.17 390.214C209.247 385.464 190.791 362.108 187.571 357.39C187.555 357.39 181.749 351.371 174.007 351.841Z" fill="#1ABF78"/>
<path d="M305.6 370.103C305.6 370.103 315.169 356.779 325.109 358.331L330.853 360.854C330.853 360.854 330.203 364.46 326.642 363.77C323.081 363.08 320.603 364.35 320.603 364.35L314.472 370.385L305.6 370.103Z" fill="#FFB0A3"/>
<path d="M172.49 540.349L181.284 540.521C181.64 540.788 182.105 540.333 182.631 540.38L193.779 551.18C194.476 551.823 193.996 552.92 193.021 552.92H171.87L172.49 540.349Z" fill="#D90000"/>
<path d="M134.323 540.349L143.118 540.521C143.474 540.788 143.938 540.333 144.48 540.38L155.628 551.18C156.325 551.823 155.845 552.92 154.87 552.92H133.719L134.323 540.349Z" fill="#D90000"/>
<path d="M180.355 408.757L186.672 540.349L170.895 541.603L165.708 478.041L163.091 441.863L157.13 474.545L146.865 541.164H132.945L137.915 471.034L141.554 414.384L180.355 408.757Z" fill="#2FDD92"/>
<path d="M151.061 338.251L145.642 337.154L141.957 317.654C141.957 317.654 144.558 306.258 151.045 306.917C157.533 307.575 166.451 301.932 170.818 305.192C174.58 307.998 173.976 323.783 164.253 324.88L151.061 338.251Z" fill="#D90000"/>
<path d="M132.512 357.39C132.512 357.39 152.64 348.001 180.355 352.687V403.302C180.355 403.302 182.523 410.105 181.439 412.205C181.439 412.205 159.793 423.46 138.349 418.068C138.349 418.068 136.832 413.616 139.433 408.929C139.448 408.929 139.665 370.541 132.512 357.39Z" fill="#00A25C"/>
<path d="M150.968 326.683C150.968 326.683 147.949 324.817 147.407 326.683C146.865 328.548 146.586 331.683 149.187 331.511L151.185 336.37L149.11 352.876C149.11 352.876 155.628 358.299 161.946 351.982L162.487 340.226L168.789 337.624L165.77 319.19C165.77 319.19 160.01 324.488 154.529 319.19L153.43 329.786L151.231 330.1L150.968 326.683Z" fill="#EC9F90"/>
<path d="M252.415 372.814L284.326 376.169L308.759 364.601L314.487 370.369C314.487 370.369 294.468 387.611 289.42 389.069C284.372 390.527 251.935 386.734 251.935 386.734C251.935 386.734 245.231 385.386 244.023 378.301C242.815 371.215 252.415 372.814 252.415 372.814Z" fill="#1ABF78"/>
<path d="M350.78 438.569C382.815 433.363 404.615 402.852 399.473 370.421C394.331 337.99 364.193 315.919 332.158 321.125C300.124 326.331 278.323 356.842 283.466 389.273C288.608 421.704 318.746 443.775 350.78 438.569Z" fill="#FFA600"/>
<path d="M340.633 436.716C372.849 432.847 395.867 403.27 392.046 370.655C388.224 338.04 359.009 314.737 326.793 318.606C294.577 322.476 271.559 352.052 275.38 384.667C279.202 417.282 308.417 440.585 340.633 436.716Z" fill="#FFD165"/>
<path d="M314.89 424.307C290.179 413.648 278.194 384.806 288.166 359.381C293.074 346.872 302.488 337.044 314.689 331.714C326.89 326.385 340.407 326.181 352.762 331.134C365.118 336.088 374.826 345.634 380.09 357.986C385.355 370.338 385.556 384.022 380.663 396.53C370.537 422.347 341.568 435.013 316.067 424.761C315.664 424.62 315.277 424.463 314.89 424.307ZM353.707 332.216C353.32 332.044 352.933 331.887 352.545 331.73C340.345 326.824 326.982 327.028 314.936 332.294C302.89 337.561 293.585 347.264 288.739 359.616C278.891 384.727 290.721 413.193 315.138 423.727C315.525 423.883 315.896 424.056 316.283 424.213C341.475 434.339 370.088 421.83 380.09 396.327C384.937 383.975 384.735 370.447 379.533 358.252C374.485 346.433 365.35 337.232 353.707 332.216Z" fill="#FFA600"/>
<path d="M317.569 411.484L321.176 402.91C316.345 400.731 311.948 397.032 309.92 393.631L314.333 388.803C316.5 392.141 320.185 395.637 324.877 397.659C330.838 400.23 336.319 398.49 338.363 393.646C340.329 388.975 338.27 384.68 333.129 379.445C326.007 372.36 322.368 366.168 325.465 358.785C328.438 351.731 335.638 348.518 343.89 350.571L347.498 341.997L352.7 344.239L349.232 352.484C354.187 354.819 357.067 357.672 358.894 360.164L354.434 364.867C353.103 363.08 350.455 359.741 345.082 357.421C338.626 354.631 334.538 357.484 333.114 360.885C331.256 365.306 333.424 368.848 339.447 375.056C346.584 382.345 349.093 388.646 345.903 396.201C343.085 402.91 335.823 407.205 326.564 404.917L322.848 413.757L317.569 411.484Z" fill="#FFA600"/>
<path d="M219.095 553.124H239.238C239.238 553.124 238.217 549.033 233.881 548.171C232.132 547.826 230.707 546.87 229.608 545.866C227.982 544.377 227.131 542.747 227.131 542.747C227.131 542.747 238.387 500.456 243.016 486.066L233.123 474.812L227.192 480.47C227.192 480.47 222.904 520.065 217.902 542.606C217.391 544.91 216.865 547.042 216.354 548.939C215.766 551.008 217.144 553.124 219.095 553.124Z" fill="#FFB0A3"/>
<path d="M260.652 496.772L268.332 543.844L269.385 550.255C269.663 551.917 270.948 553.139 272.466 553.139H288.212C288.212 553.139 288.599 548.97 283.428 547.904C282.329 547.669 281.353 547.199 280.517 546.54C277.405 544.173 275.965 539.627 275.98 537.621C275.996 535.05 274.448 490.784 274.448 490.784L260.652 496.772Z" fill="#FFB0A3"/>
<path d="M244.038 322.921C244.038 322.921 260.884 323.015 261.194 333.266C261.503 343.533 253.297 356.199 254.985 360.509C256.673 364.82 256.425 388.599 233.37 390.809C210.316 393.019 207.08 377.219 213.815 365.337C220.535 353.471 233.138 325.335 244.038 322.921Z" fill="#1ABF78"/>
<path d="M269.973 406.609L273.317 427.912L278.953 496.772C278.953 496.772 254.381 515.849 228.524 505.44C228.524 505.44 221.123 499.531 211.694 501.004L234.624 429.228C234.624 429.228 240.539 408.067 247.228 405.23C258.856 400.292 269.973 406.609 269.973 406.609Z" fill="#1ABF78"/>
<path d="M238.201 385.558L247.228 405.12C247.228 405.12 260.698 410.183 269.957 406.421L272.203 386.154C272.203 386.154 268.471 380.636 264.26 374.538C261.519 370.573 252.91 369.883 249.303 373.049L238.201 385.558Z" fill="#00A25C"/>
<path d="M296.604 392.815C296.604 392.815 310.183 383.74 318.962 388.74L323.468 393.145C323.468 393.145 321.61 396.28 318.513 394.367C315.416 392.455 312.66 392.753 312.66 392.753L304.826 396.233L296.604 392.815Z" fill="#FFB0A3"/>
<path d="M267.434 540.537L276.228 540.709C276.584 540.976 277.049 540.521 277.591 540.568L288.739 551.368C289.435 552.011 288.955 553.108 287.98 553.108H266.21L267.434 540.537Z" fill="#D90000"/>
<path d="M217.856 540.537L226.651 540.709C227.007 540.976 227.471 540.521 227.998 540.568L239.146 551.368C239.842 552.011 239.362 553.108 238.387 553.108H215.394L217.856 540.537Z" fill="#D90000"/>
<path d="M261.194 333.266C261.194 333.266 263.036 337.122 263.795 348.063C264.554 359.004 263.191 358.189 263.191 358.189L257.834 359.914L255.202 372.548L241.685 374.507C241.685 374.507 249.055 369.711 249.318 359.914C249.581 350.132 244.178 354.835 245.324 347.781C246.469 340.727 249.829 348.048 249.829 348.048C249.829 348.048 258.856 345.665 261.194 333.266Z" fill="#EC9F90"/>
<path d="M251.408 373.567L274.587 390.935L301.466 388.787L304.826 396.233C304.826 396.233 280.099 405.261 274.865 404.838C269.632 404.415 240.585 389.32 240.585 389.32C240.585 389.32 236.235 385.793 236.111 378.614C235.987 372.266 240.523 371.027 244.239 371.074C246.825 371.106 249.318 372.015 251.408 373.567Z" fill="#2FDD92"/>
<path d="M132.512 357.39C132.512 357.39 116.254 388.709 122.912 411.751C122.912 411.751 136.011 423.883 168.789 403.333L165.724 392.972L137.126 397.847C137.126 397.863 143.443 366.215 132.512 357.39Z" fill="#2FDD92"/>
<path d="M165.739 392.988C165.739 392.988 170.152 390.292 175.261 389.414C180.371 388.536 175.261 391.201 175.261 391.201C175.261 391.201 179.751 389.68 185.062 389.242C190.357 388.803 178.745 400.042 178.745 400.042L168.418 402.064L165.739 392.988Z" fill="#EC9F90"/>
<path d="M440.677 222.742L440.475 222.93V233.651H351.88V248.7H440.475V259.421L440.677 259.609L460.108 241.175L440.677 222.742Z" fill="#2FDD92"/>
<path d="M353.026 300.913L353.211 300.725V290.003H441.807V274.955H353.211V264.234L353.026 264.045L333.579 282.479L353.026 300.913Z" fill="#2FDD92"/>
</svg>
